{
    "asset" : {
        "generator" : "Khronos glTF Blender I/O v1.7.33",
        "version" : "2.0"
    },
    "scene" : 0,
    "scenes" : [
        {
            "name" : "Scene",
            "nodes" : [
                0,
                1
            ]
        }
    ],
    "nodes" : [
        {
            "mesh" : 0,
            "name" : "earth"
        },
        {
            "mesh" : 1,
            "name" : "water"
        }
    ],
    "materials" : [
        {
            "doubleSided" : true,
            "name" : "Earth gradient.003",
            "pbrMetallicRoughness" : {
                "baseColorTexture" : {
                    "index" : 0
                },
                "metallicFactor" : 0,
                "metallicRoughnessTexture" : {
                    "index" : 1
                }
            }
        },
        {
            "alphaMode" : "BLEND",
            "doubleSided" : true,
            "name" : "Water",
            "pbrMetallicRoughness" : {
                "baseColorFactor" : [
                    0.012303676456212997,
                    0.11206437647342682,
                    0.7484489679336548,
                    0.9637306332588196
                ],
                "metallicFactor" : 0,
                "roughnessFactor" : 0.10000000149011612
            }
        }
    ],
    "meshes" : [
        {
            "name" : "Sphere",
            "primitives" : [
                {
                    "attributes" : {
                        "POSITION" : 0,
                        "NORMAL" : 1,
                        "TEXCOORD_0" : 2
                    },
                    "indices" : 3,
                    "material" : 0
                }
            ]
        },
        {
            "name" : "Icosphere",
            "primitives" : [
                {
                    "attributes" : {
                        "POSITION" : 4,
                        "NORMAL" : 5,
                        "TEXCOORD_0" : 6
                    },
                    "indices" : 7,
                    "material" : 1
                }
            ]
        }
    ],
    "textures" : [
        {
            "sampler" : 0,
            "source" : 0
        },
        {
            "sampler" : 0,
            "source" : 1
        }
    ],
    "images" : [
        {
            "mimeType" : "image/png",
            "name" : "h1-color-1k",
            "uri" : "textures/h1-color-1k.png"
        },
        {
            "mimeType" : "image/png",
            "name" : "hq-roughness-1k",
            "uri" : "textures/hq-roughness-1k.png"
        }
    ],
    "accessors" : [
        {
            "bufferView" : 0,
            "componentType" : 5126,
            "count" : 186380,
            "max" : [
                1.0062055587768555,
                1.0057929754257202,
                1.011751413345337
            ],
            "min" : [
                -0.9872742891311646,
                -1.0123660564422607,
                -1.0033930540084839
            ],
            "type" : "VEC3"
        },
        {
            "bufferView" : 1,
            "componentType" : 5126,
            "count" : 186380,
            "type" : "VEC3"
        },
        {
            "bufferView" : 2,
            "componentType" : 5126,
            "count" : 186380,
            "type" : "VEC2"
        },
        {
            "bufferView" : 3,
            "componentType" : 5125,
            "count" : 187266,
            "type" : "SCALAR"
        },
        {
            "bufferView" : 4,
            "componentType" : 5126,
            "count" : 2016,
            "max" : [
                1.0028131008148193,
                1.0004265308380127,
                1.0020267963409424
            ],
            "min" : [
                -1.001783847808838,
                -0.9962127208709717,
                -0.9995794892311096
            ],
            "type" : "VEC3"
        },
        {
            "bufferView" : 5,
            "componentType" : 5126,
            "count" : 2016,
            "type" : "VEC3"
        },
        {
            "bufferView" : 6,
            "componentType" : 5126,
            "count" : 2016,
            "type" : "VEC2"
        },
        {
            "bufferView" : 7,
            "componentType" : 5123,
            "count" : 2016,
            "type" : "SCALAR"
        }
    ],
    "bufferViews" : [
        {
            "buffer" : 0,
            "byteLength" : 2236560,
            "byteOffset" : 0
        },
        {
            "buffer" : 0,
            "byteLength" : 2236560,
            "byteOffset" : 2236560
        },
        {
            "buffer" : 0,
            "byteLength" : 1491040,
            "byteOffset" : 4473120
        },
        {
            "buffer" : 0,
            "byteLength" : 749064,
            "byteOffset" : 5964160
        },
        {
            "buffer" : 0,
            "byteLength" : 24192,
            "byteOffset" : 6713224
        },
        {
            "buffer" : 0,
            "byteLength" : 24192,
            "byteOffset" : 6737416
        },
        {
            "buffer" : 0,
            "byteLength" : 16128,
            "byteOffset" : 6761608
        },
        {
            "buffer" : 0,
            "byteLength" : 4032,
            "byteOffset" : 6777736
        }
    ],
    "samplers" : [
        {
            "magFilter" : 9729,
            "minFilter" : 9987
        }
    ],
    "buffers" : [
        {
            "byteLength" : 6781768,
            "uri" : "earth.bin"
        }
    ]
}
