{
    "asset" : {
        "generator" : "Khronos glTF Blender I/O v1.7.33",
        "version" : "2.0"
    },
    "extensionsUsed" : [
        "KHR_materials_clearcoat"
    ],
    "scene" : 0,
    "scenes" : [
        {
            "name" : "Scene",
            "nodes" : [
                7
            ]
        }
    ],
    "nodes" : [
        {
            "mesh" : 0,
            "name" : "pSphere2_earthday_0"
        },
        {
            "mesh" : 1,
            "name" : "pSphere2_earthday_0.001"
        },
        {
            "mesh" : 2,
            "name" : "pSphere2_earthday_0.002"
        },
        {
            "mesh" : 3,
            "name" : "pSphere2_earthday_0.003"
        },
        {
            "children" : [
                0,
                1,
                2,
                3
            ],
            "name" : "pSphere2",
            "rotation" : [
                0,
                0.7071067690849304,
                0,
                0.7071068286895752
            ],
            "scale" : [
                10.250269889831543,
                10.250269889831543,
                10.250269889831543
            ],
            "translation" : [
                0,
                0,
                0.4498600363731384
            ]
        },
        {
            "children" : [
                4
            ],
            "name" : "RootNode",
            "rotation" : [
                0,
                0.7071068286895752,
                0,
                0.7071068286895752
            ]
        },
        {
            "children" : [
                5
            ],
            "name" : "89ea626e32a647e39ef70660a2cb50bf.fbx",
            "rotation" : [
                0.7071068286895752,
                0,
                0,
                0.7071068286895752
            ],
            "scale" : [
                0.009999999776482582,
                0.009999999776482582,
                0.009999999776482582
            ]
        },
        {
            "children" : [
                6
            ],
            "name" : "Sketchfab_model",
            "rotation" : [
                0.7071068286895752,
                0,
                0,
                -0.7071067094802856
            ],
            "scale" : [
                50,
                50,
                50
            ]
        }
    ],
    "materials" : [
        {
            "doubleSided" : true,
            "emissiveFactor" : [
                0.20000000298023224,
                0.20000000298023224,
                0.20000000298023224
            ],
            "emissiveTexture" : {
                "index" : 0
            },
            "extensions" : {
                "KHR_materials_clearcoat" : {
                    "clearcoatFactor" : 1,
                    "clearcoatRoughnessFactor" : 1,
                    "clearcoatTexture" : {
                        "index" : 1
                    },
                    "clearcoatRoughnessTexture" : {
                        "index" : 1
                    }
                }
            },
            "name" : "earthday.003",
            "normalTexture" : {
                "index" : 2
            },
            "pbrMetallicRoughness" : {
                "baseColorTexture" : {
                    "index" : 3
                },
                "metallicFactor" : 0,
                "metallicRoughnessTexture" : {
                    "index" : 4
                }
            }
        }
    ],
    "meshes" : [
        {
            "name" : "pSphere2_earthday_0.012",
            "primitives" : [
                {
                    "attributes" : {
                        "POSITION" : 0,
                        "NORMAL" : 1,
                        "TEXCOORD_0" : 2
                    },
                    "indices" : 3,
                    "material" : 0
                }
            ]
        },
        {
            "name" : "pSphere2_earthday_0.013",
            "primitives" : [
                {
                    "attributes" : {
                        "POSITION" : 4,
                        "NORMAL" : 5,
                        "TEXCOORD_0" : 6
                    },
                    "indices" : 7,
                    "material" : 0
                }
            ]
        },
        {
            "name" : "pSphere2_earthday_0.014",
            "primitives" : [
                {
                    "attributes" : {
                        "POSITION" : 8,
                        "NORMAL" : 9,
                        "TEXCOORD_0" : 10
                    },
                    "indices" : 11,
                    "material" : 0
                }
            ]
        },
        {
            "name" : "pSphere2_earthday_0.015",
            "primitives" : [
                {
                    "attributes" : {
                        "POSITION" : 12,
                        "NORMAL" : 13,
                        "TEXCOORD_0" : 14
                    },
                    "indices" : 15,
                    "material" : 0
                }
            ]
        }
    ],
    "textures" : [
        {
            "sampler" : 0,
            "source" : 0
        },
        {
            "sampler" : 0,
            "source" : 1
        },
        {
            "sampler" : 0,
            "source" : 2
        },
        {
            "sampler" : 0,
            "source" : 0
        },
        {
            "sampler" : 0,
            "source" : 3
        }
    ],
    "images" : [
        {
            "mimeType" : "image/jpeg",
            "name" : "earthday_baseColor",
            "uri" : "textures/earthday_baseColor.jpg"
        },
        {
            "mimeType" : "image/png",
            "name" : "earthday_clearcoat-earthday_clearcoat_roughness",
            "uri" : "textures/earthday_clearcoat-earthday_clearcoat_roughness.png"
        },
        {
            "mimeType" : "image/png",
            "name" : "earthday_normal",
            "uri" : "textures/earthday_normal.png"
        },
        {
            "mimeType" : "image/png",
            "name" : "earthday_metallicRoughness",
            "uri" : "textures/earthday_metallicRoughness.png"
        }
    ],
    "accessors" : [
        {
            "bufferView" : 0,
            "componentType" : 5126,
            "count" : 65532,
            "max" : [
                0.9999107122421265,
                1,
                0.776580274105072
            ],
            "min" : [
                -0.9999752044677734,
                -1,
                -0.9999921917915344
            ],
            "type" : "VEC3"
        },
        {
            "bufferView" : 1,
            "componentType" : 5126,
            "count" : 65532,
            "type" : "VEC3"
        },
        {
            "bufferView" : 2,
            "componentType" : 5126,
            "count" : 65532,
            "type" : "VEC2"
        },
        {
            "bufferView" : 3,
            "componentType" : 5123,
            "count" : 387408,
            "type" : "SCALAR"
        },
        {
            "bufferView" : 4,
            "componentType" : 5126,
            "count" : 65532,
            "max" : [
                0.8126934170722961,
                0.9999802708625793,
                0.8163363933563232
            ],
            "min" : [
                -0.9999160170555115,
                -1,
                -0.7628973722457886
            ],
            "type" : "VEC3"
        },
        {
            "bufferView" : 5,
            "componentType" : 5126,
            "count" : 65532,
            "type" : "VEC3"
        },
        {
            "bufferView" : 6,
            "componentType" : 5126,
            "count" : 65532,
            "type" : "VEC2"
        },
        {
            "bufferView" : 7,
            "componentType" : 5123,
            "count" : 386169,
            "type" : "SCALAR"
        },
        {
            "bufferView" : 8,
            "componentType" : 5126,
            "count" : 65532,
            "max" : [
                0.8476771116256714,
                1,
                0.8509914875030518
            ],
            "min" : [
                -0.9999949932098389,
                -0.5826915502548218,
                -0.9429837465286255
            ],
            "type" : "VEC3"
        },
        {
            "bufferView" : 9,
            "componentType" : 5126,
            "count" : 65532,
            "type" : "VEC3"
        },
        {
            "bufferView" : 10,
            "componentType" : 5126,
            "count" : 65532,
            "type" : "VEC2"
        },
        {
            "bufferView" : 11,
            "componentType" : 5123,
            "count" : 385380,
            "type" : "SCALAR"
        },
        {
            "bufferView" : 12,
            "componentType" : 5126,
            "count" : 57464,
            "max" : [
                1,
                1,
                0.9999974370002747
            ],
            "min" : [
                -0.9997383952140808,
                -0.5305124521255493,
                -0.742820143699646
            ],
            "type" : "VEC3"
        },
        {
            "bufferView" : 13,
            "componentType" : 5126,
            "count" : 57464,
            "type" : "VEC3"
        },
        {
            "bufferView" : 14,
            "componentType" : 5126,
            "count" : 57464,
            "type" : "VEC2"
        },
        {
            "bufferView" : 15,
            "componentType" : 5123,
            "count" : 338043,
            "type" : "SCALAR"
        }
    ],
    "bufferViews" : [
        {
            "buffer" : 0,
            "byteLength" : 786384,
            "byteOffset" : 0
        },
        {
            "buffer" : 0,
            "byteLength" : 786384,
            "byteOffset" : 786384
        },
        {
            "buffer" : 0,
            "byteLength" : 524256,
            "byteOffset" : 1572768
        },
        {
            "buffer" : 0,
            "byteLength" : 774816,
            "byteOffset" : 2097024
        },
        {
            "buffer" : 0,
            "byteLength" : 786384,
            "byteOffset" : 2871840
        },
        {
            "buffer" : 0,
            "byteLength" : 786384,
            "byteOffset" : 3658224
        },
        {
            "buffer" : 0,
            "byteLength" : 524256,
            "byteOffset" : 4444608
        },
        {
            "buffer" : 0,
            "byteLength" : 772338,
            "byteOffset" : 4968864
        },
        {
            "buffer" : 0,
            "byteLength" : 786384,
            "byteOffset" : 5741204
        },
        {
            "buffer" : 0,
            "byteLength" : 786384,
            "byteOffset" : 6527588
        },
        {
            "buffer" : 0,
            "byteLength" : 524256,
            "byteOffset" : 7313972
        },
        {
            "buffer" : 0,
            "byteLength" : 770760,
            "byteOffset" : 7838228
        },
        {
            "buffer" : 0,
            "byteLength" : 689568,
            "byteOffset" : 8608988
        },
        {
            "buffer" : 0,
            "byteLength" : 689568,
            "byteOffset" : 9298556
        },
        {
            "buffer" : 0,
            "byteLength" : 459712,
            "byteOffset" : 9988124
        },
        {
            "buffer" : 0,
            "byteLength" : 676086,
            "byteOffset" : 10447836
        }
    ],
    "samplers" : [
        {
            "magFilter" : 9729,
            "minFilter" : 9987
        }
    ],
    "buffers" : [
        {
            "byteLength" : 11123924,
            "uri" : "earth.bin"
        }
    ]
}
