{
    "asset" : {
        "generator" : "Khronos glTF Blender I/O v1.7.33",
        "version" : "2.0"
    },
    "scene" : 0,
    "scenes" : [
        {
            "name" : "Scene",
            "nodes" : [
                0,
                1
            ]
        }
    ],
    "nodes" : [
        {
            "mesh" : 0,
            "name" : "Ocean"
        },
        {
            "mesh" : 1,
            "name" : "Earth"
        }
    ],
    "materials" : [
        {
            "alphaMode" : "BLEND",
            "doubleSided" : true,
            "name" : "Water",
            "pbrMetallicRoughness" : {
                "baseColorFactor" : [
                    0.012303676456212997,
                    0.11206437647342682,
                    0.7484489679336548,
                    0.9637306332588196
                ],
                "metallicFactor" : 0,
                "roughnessFactor" : 0.10000000149011612
            }
        },
        {
            "doubleSided" : true,
            "name" : "Earth gradient.003",
            "pbrMetallicRoughness" : {
                "baseColorTexture" : {
                    "index" : 0
                },
                "metallicFactor" : 0,
                "metallicRoughnessTexture" : {
                    "index" : 1
                }
            }
        }
    ],
    "meshes" : [
        {
            "name" : "Icosphere.002",
            "primitives" : [
                {
                    "attributes" : {
                        "POSITION" : 0,
                        "NORMAL" : 1,
                        "TEXCOORD_0" : 2
                    },
                    "indices" : 3,
                    "material" : 0
                }
            ]
        },
        {
            "name" : "Sphere.006",
            "primitives" : [
                {
                    "attributes" : {
                        "POSITION" : 4,
                        "NORMAL" : 5,
                        "TEXCOORD_0" : 6
                    },
                    "indices" : 7,
                    "material" : 1
                }
            ]
        }
    ],
    "textures" : [
        {
            "sampler" : 0,
            "source" : 0
        },
        {
            "sampler" : 0,
            "source" : 1
        }
    ],
    "images" : [
        {
            "mimeType" : "image/png",
            "name" : "baseColor-1k",
            "uri" : "textures/baseColor-1k.png"
        },
        {
            "mimeType" : "image/png",
            "name" : "roughness-1k",
            "uri" : "textures/roughness-1k.png"
        }
    ],
    "accessors" : [
        {
            "bufferView" : 0,
            "componentType" : 5126,
            "count" : 1224,
            "max" : [
                6.024068355560303,
                5.961642742156982,
                6.014082431793213
            ],
            "min" : [
                -6.015139102935791,
                -5.995365142822266,
                -5.9887566566467285
            ],
            "type" : "VEC3"
        },
        {
            "bufferView" : 1,
            "componentType" : 5126,
            "count" : 1224,
            "type" : "VEC3"
        },
        {
            "bufferView" : 2,
            "componentType" : 5126,
            "count" : 1224,
            "type" : "VEC2"
        },
        {
            "bufferView" : 3,
            "componentType" : 5123,
            "count" : 1224,
            "type" : "SCALAR"
        },
        {
            "bufferView" : 4,
            "componentType" : 5126,
            "count" : 39740,
            "max" : [
                6.381867408752441,
                6.397731304168701,
                6.421332836151123
            ],
            "min" : [
                -5.95707368850708,
                -6.410074710845947,
                -6.325331211090088
            ],
            "type" : "VEC3"
        },
        {
            "bufferView" : 5,
            "componentType" : 5126,
            "count" : 39740,
            "type" : "VEC3"
        },
        {
            "bufferView" : 6,
            "componentType" : 5126,
            "count" : 39740,
            "type" : "VEC2"
        },
        {
            "bufferView" : 7,
            "componentType" : 5123,
            "count" : 57516,
            "type" : "SCALAR"
        }
    ],
    "bufferViews" : [
        {
            "buffer" : 0,
            "byteLength" : 14688,
            "byteOffset" : 0
        },
        {
            "buffer" : 0,
            "byteLength" : 14688,
            "byteOffset" : 14688
        },
        {
            "buffer" : 0,
            "byteLength" : 9792,
            "byteOffset" : 29376
        },
        {
            "buffer" : 0,
            "byteLength" : 2448,
            "byteOffset" : 39168
        },
        {
            "buffer" : 0,
            "byteLength" : 476880,
            "byteOffset" : 41616
        },
        {
            "buffer" : 0,
            "byteLength" : 476880,
            "byteOffset" : 518496
        },
        {
            "buffer" : 0,
            "byteLength" : 317920,
            "byteOffset" : 995376
        },
        {
            "buffer" : 0,
            "byteLength" : 115032,
            "byteOffset" : 1313296
        }
    ],
    "samplers" : [
        {
            "magFilter" : 9729,
            "minFilter" : 9987
        }
    ],
    "buffers" : [
        {
            "byteLength" : 1428328,
            "uri" : "earth.bin"
        }
    ]
}
